<?xml version="1.0" standalone="no"?>
<!DOCTYPE svg PUBLIC "-//W3C//DTD SVG 20010904//EN"
 "http://www.w3.org/TR/2001/REC-SVG-20010904/DTD/svg10.dtd">
<svg version="1.0" xmlns="http://www.w3.org/2000/svg"
 width="500.000000pt" height="500.000000pt" viewBox="0 0 500.000000 500.000000"
 preserveAspectRatio="xMidYMid meet">
<metadata>
Created by potrace 1.14, written by Peter Selinger 2001-2017
</metadata>
<g transform="translate(0.000000,500.000000) scale(0.100000,-0.100000)"
fill="#000000" stroke="none">
<path d="M1988 4799 c-27 -15 -27 -18 37 -299 30 -133 67 -280 75 -297 11 -26
51 -31 69 -9 9 11 8 34 -8 101 -12 48 -23 99 -26 113 -3 15 -25 105 -48 201
-44 183 -60 212 -99 190z"/>
<path d="M3009 4763 c-5 -16 -12 -35 -15 -43 -3 -8 -11 -42 -19 -75 -7 -33
-34 -140 -59 -238 -50 -195 -54 -222 -30 -231 40 -15 64 12 79 90 3 16 31 131
63 255 63 242 64 269 17 269 -19 0 -28 -7 -36 -27z"/>
<path d="M1052 4318 c-7 -7 -12 -19 -12 -27 0 -15 78 -111 220 -271 32 -36 81
-93 110 -127 41 -49 59 -63 81 -63 24 0 39 15 39 41 0 7 -61 82 -151 184 -15
17 -75 85 -133 153 -104 119 -128 136 -154 110z"/>
<path d="M3905 4258 c-22 -24 -80 -88 -130 -143 -49 -55 -99 -109 -110 -120
-33 -35 -109 -126 -118 -140 -5 -9 0 -22 13 -35 32 -32 29 -33 230 190 52 58
115 127 140 153 63 68 77 93 64 115 -20 31 -48 25 -89 -20z"/>
<path d="M2408 3895 c-2 -1 -39 -5 -83 -8 -128 -9 -313 -62 -450 -127 -271
-131 -512 -370 -634 -631 -53 -114 -88 -222 -110 -339 -8 -48 -8 -334 1 -395
13 -84 56 -233 93 -319 92 -211 230 -384 430 -537 117 -89 173 -161 215 -274
29 -80 33 -124 35 -415 1 -190 5 -286 14 -312 21 -62 112 -128 176 -128 6 0
19 -15 29 -32 38 -69 144 -145 226 -163 50 -11 185 -13 248 -3 30 5 72 18 94
29 52 27 120 89 143 133 14 26 27 35 52 39 61 10 121 53 147 106 24 47 25 52
26 327 1 299 2 322 27 399 38 117 98 196 227 298 283 222 455 501 512 831 17
97 23 271 11 346 -3 25 -9 59 -11 75 -61 395 -341 766 -722 958 -116 58 -297
115 -424 132 -47 7 -266 15 -272 10z"/>
<path d="M450 3460 c-20 -37 4 -54 147 -109 76 -29 189 -73 251 -98 167 -66
169 -66 189 -37 27 42 30 41 -337 182 -36 13 -78 30 -95 37 -118 50 -140 54
-155 25z"/>
<path d="M4410 3398 c-58 -22 -114 -43 -125 -48 -11 -5 -78 -30 -150 -56 -130
-47 -169 -72 -158 -100 13 -35 45 -32 172 17 69 26 189 71 266 99 77 29 146
57 153 62 28 24 1 70 -40 67 -7 -1 -60 -19 -118 -41z"/>
<path d="M827 2504 c-1 -1 -33 -5 -72 -8 -38 -4 -81 -9 -95 -11 -14 -2 -91
-11 -173 -20 -81 -9 -154 -18 -161 -21 -20 -8 -26 -40 -12 -60 11 -14 24 -16
87 -10 41 3 83 8 94 10 11 2 52 7 90 10 39 4 84 9 100 11 17 2 55 6 85 10 126
14 146 17 159 30 9 9 11 23 7 40 -6 24 -10 26 -56 24 -28 -2 -51 -4 -53 -5z"/>
<path d="M4070 2461 c-12 -24 2 -61 23 -61 7 0 41 -5 77 -10 36 -5 88 -12 115
-15 28 -4 61 -8 75 -10 14 -2 52 -7 84 -11 33 -3 67 -8 75 -9 59 -11 142 -16
160 -10 27 8 28 50 2 64 -10 6 -42 13 -72 16 -30 3 -63 7 -74 9 -11 2 -47 7
-80 11 -32 4 -66 8 -75 10 -8 1 -42 6 -75 10 -33 4 -69 8 -80 10 -141 18 -143
18 -155 -4z"/>
</g>
</svg>
